<svg width="247" height="48" viewBox="0 0 247 48" fill="none" xmlns="http://www.w3.org/2000/svg">
<path d="M42.352 38.104C40.4747 41.176 37.8933 43.544 34.608 45.208C31.3227 46.8293 27.6747 47.64 23.664 47.64C18.7573 47.64 14.5547 46.744 11.056 44.952C7.6 43.16 4.93333 40.6 3.056 37.272C1.22133 33.9013 0.304 29.8693 0.304 25.176C0.304 20.3547 1.328 16.1307 3.376 12.504C5.424 8.87733 8.26133 6.04 11.888 3.992C15.5573 1.944 19.7813 0.919998 24.56 0.919998C28.7413 0.919998 32.2613 1.688 35.12 3.224C38.0213 4.76 40.4533 7.08533 42.416 10.2L34.416 15.896C33.392 13.9333 31.984 12.504 30.192 11.608C28.4 10.712 26.48 10.264 24.432 10.264C21.744 10.264 19.3973 10.8827 17.392 12.12C15.3867 13.3573 13.808 15.0853 12.656 17.304C11.5467 19.5227 10.992 22.0827 10.992 24.984C10.992 29.208 12.1013 32.4933 14.32 34.84C16.5387 37.1867 19.6747 38.36 23.728 38.36C25.904 38.36 27.952 37.848 29.872 36.824C31.8347 35.7573 33.4133 34.1573 34.608 32.024L42.352 38.104ZM61.2745 13.912C66.3518 13.912 70.3198 15.3627 73.1785 18.264C76.0798 21.1653 77.5305 25.0907 77.5305 30.04C77.5305 33.4107 76.8052 36.4187 75.3545 39.064C73.9038 41.7093 71.8558 43.8 69.2105 45.336C66.5652 46.872 63.4505 47.64 59.8665 47.64C54.8318 47.64 50.8638 46.1893 47.9625 43.288C45.1038 40.3867 43.6745 36.4827 43.6745 31.576C43.6745 28.1627 44.3998 25.1333 45.8505 22.488C47.3012 19.8427 49.3492 17.752 51.9945 16.216C54.6398 14.68 57.7332 13.912 61.2745 13.912ZM60.3145 39.128C62.4905 39.128 64.2185 38.3173 65.4985 36.696C66.8212 35.032 67.4825 32.8133 67.4825 30.04C67.4825 27.6507 66.9065 25.7947 65.7545 24.472C64.6025 23.1067 63.0238 22.424 61.0185 22.424C58.7998 22.424 57.0292 23.256 55.7065 24.92C54.4265 26.5413 53.7865 28.7387 53.7865 31.512C53.7865 33.9013 54.3412 35.7787 55.4505 37.144C56.6025 38.4667 58.2238 39.128 60.3145 39.128ZM83.4635 47V14.424H93.1915L92.7435 21.4C94.0662 19.0107 95.7515 17.176 97.7995 15.896C99.8902 14.5733 102.216 13.912 104.776 13.912C108.658 13.912 111.56 15.2347 113.479 17.88C115.4 20.4827 116.338 24.2373 116.296 29.144L116.168 47H106.376L106.504 29.848C106.546 27.6293 106.205 25.944 105.48 24.792C104.797 23.5973 103.688 23 102.152 23C100.872 23 99.6982 23.384 98.6315 24.152C97.5648 24.8773 96.6262 26.136 95.8155 27.928C95.0475 29.72 94.4288 32.1733 93.9595 35.288C93.4902 38.4027 93.2342 42.3067 93.1915 47H83.4635ZM137.995 47.64C133.984 47.64 130.805 46.5307 128.459 44.312C126.112 42.0507 124.96 39.0853 125.003 35.416L125.259 22.552H119.883V14.424H125.387L125.451 7.768H135.179L135.115 14.424H145.291V22.552H134.987L134.795 34.328C134.795 35.864 135.2 37.0587 136.01 37.912C136.821 38.7653 138.037 39.192 139.659 39.192C140.597 39.192 141.493 39.0853 142.347 38.872C143.243 38.616 144.16 38.1467 145.099 37.464L147.915 44.952C145.739 46.744 142.432 47.64 137.995 47.64ZM182.089 14.552V47H172.233L172.553 42.136C170.206 45.8053 166.729 47.64 162.121 47.64C159.219 47.64 156.745 46.9787 154.697 45.656C152.649 44.3333 151.091 42.4987 150.025 40.152C148.958 37.8053 148.424 35.1173 148.424 32.088C148.424 28.4613 149.171 25.2827 150.665 22.552C152.158 19.8213 154.163 17.7093 156.681 16.216C159.198 14.68 162.014 13.912 165.128 13.912C167.177 13.912 168.99 14.3387 170.569 15.192C172.147 16.0027 173.363 17.0907 174.217 18.456L175.049 14.552H182.089ZM166.089 22.424C163.742 22.424 161.886 23.2987 160.521 25.048C159.198 26.7973 158.537 29.0373 158.537 31.768C158.537 34.1147 159.049 35.928 160.073 37.208C161.139 38.488 162.569 39.128 164.361 39.128C166.537 39.128 168.393 38.232 169.929 36.44C171.507 34.648 172.297 32.3013 172.297 29.4C172.297 27.224 171.742 25.5173 170.633 24.28C169.523 23.0427 168.009 22.424 166.089 22.424ZM204.563 47.64C201.192 47.64 198.27 47 195.795 45.72C193.32 44.3973 191.4 42.52 190.035 40.088C188.67 37.656 187.987 34.7547 187.987 31.384C187.987 27.928 188.712 24.8987 190.163 22.296C191.656 19.6507 193.704 17.6027 196.307 16.152C198.91 14.6587 201.939 13.912 205.395 13.912C208.211 13.912 210.707 14.4667 212.883 15.576C215.059 16.6853 216.808 18.4133 218.131 20.76L211.219 26.008C210.536 24.7707 209.726 23.8747 208.787 23.32C207.891 22.7653 206.76 22.488 205.395 22.488C203.304 22.488 201.576 23.2987 200.211 24.92C198.846 26.4987 198.163 28.5893 198.163 31.192C198.163 33.7093 198.76 35.6507 199.955 37.016C201.192 38.3813 202.963 39.064 205.267 39.064C206.504 39.064 207.635 38.7867 208.659 38.232C209.726 37.6347 210.622 36.7173 211.347 35.48L218.067 40.856C216.616 43.3307 214.696 45.08 212.307 46.104C209.96 47.128 207.379 47.64 204.563 47.64ZM236.432 47.64C232.421 47.64 229.243 46.5307 226.896 44.312C224.549 42.0507 223.397 39.0853 223.44 35.416L223.696 22.552H218.32V14.424H223.824L223.888 7.768H233.616L233.552 14.424H243.728V22.552H233.424L233.232 34.328C233.232 35.864 233.637 37.0587 234.448 37.912C235.259 38.7653 236.475 39.192 238.096 39.192C239.035 39.192 239.931 39.0853 240.784 38.872C241.68 38.616 242.597 38.1467 243.536 37.464L246.352 44.952C244.176 46.744 240.869 47.64 236.432 47.64Z" fill="white"/>
</svg>
